<svg width="2500" height="907" viewBox="0 0 2500 907" fill="none" xmlns="http://www.w3.org/2000/svg">
<path d="M472.341 0L0 906.606H203.249C301.53 906.606 391.65 851.937 437.051 764.768L835.499 0H472.341Z" fill="white"/>
<path d="M1713.62 0L1241.27 906.606H1444.53C1542.81 906.606 1632.93 851.937 1678.35 764.783L2076.8 0H1713.62Z" fill="white"/>
<path d="M2136.83 0.00152588L2002.95 256.963L2500 0.00152588H2136.83Z" fill="white"/>
<path d="M1664.47 906.606H2027.66L1957.98 343.259L1664.47 906.606Z" fill="white"/>
<path d="M1253.26 0H890.09L417.749 906.606H780.923L1017.09 453.296C1263.44 453.296 1489.32 316.289 1603.14 97.8344L1654.1 0H1253.26Z" fill="white"/>
</svg>
