<svg width="2276" height="1154" viewBox="0 0 2276 1154" fill="none" xmlns="http://www.w3.org/2000/svg">
<path d="M326.745 1077.17V1151.41H382.784V1137.03H343.328V1121.08H378.773V1106.68H343.328V1091.56H381.968V1077.17H326.745Z" fill="url(#paint0_linear_517_1297)"/>
<path d="M407.459 1077.94C402.92 1079.68 399.307 1082.14 396.679 1085.36C394.022 1088.58 392.708 1092.39 392.708 1096.76C392.708 1103.49 394.778 1108.73 398.909 1112.42C403.03 1116.12 409.261 1118.77 417.572 1120.34C422.201 1121.2 425.794 1122.08 428.382 1122.99C430.96 1123.9 432.841 1125 434.026 1126.28C435.21 1127.55 435.797 1129.15 435.797 1131.09C435.797 1133.53 434.692 1135.51 432.473 1137.03C430.263 1138.54 427.456 1139.3 424.042 1139.3C419.374 1139.3 415.572 1138.22 412.625 1136.06C409.679 1133.9 407.957 1131.04 407.459 1127.46H390.429C390.668 1132.68 392.21 1137.24 395.037 1141.12C397.854 1145.01 401.686 1148 406.514 1150.1C411.351 1152.19 416.786 1153.24 422.858 1153.24C428.452 1153.24 433.518 1152.31 438.077 1150.46C442.645 1148.6 446.229 1145.94 448.866 1142.49C451.514 1139.03 452.848 1134.99 452.848 1130.38C452.848 1124.49 451.076 1119.58 447.503 1115.66C443.949 1111.73 438.077 1108.93 429.875 1107.23C424.599 1106.14 420.578 1105.16 417.821 1104.27C415.044 1103.38 413.003 1102.38 411.66 1101.21C410.316 1100.06 409.669 1098.58 409.669 1096.76C409.669 1094.45 410.724 1092.6 412.844 1091.24C414.974 1089.88 417.921 1089.2 421.683 1089.2C425.635 1089.2 428.79 1090.1 431.149 1091.93C433.518 1093.75 434.941 1096.3 435.429 1099.58H452.569C452.32 1094.9 450.887 1090.73 448.229 1087.06C445.602 1083.38 442.048 1080.51 437.619 1078.45C433.189 1076.38 428.242 1075.35 422.768 1075.35C417.124 1075.35 412.018 1076.22 407.459 1077.94Z" fill="url(#paint1_linear_517_1297)"/>
<path d="M457.396 1077.17V1091.83H481.534V1151.41H498.117V1091.83H522.254V1077.17H457.396Z" fill="url(#paint2_linear_517_1297)"/>
<path d="M543.585 1077.17L514.789 1151.41H531.919L537.095 1137.03H565.901L571.097 1151.41H589.581L560.795 1077.17H543.585ZM551.498 1096.76L560.795 1122.62H542.211L551.498 1096.76Z" fill="url(#paint3_linear_517_1297)"/>
<path d="M582.115 1077.17V1091.83H606.253V1151.41H622.836V1091.83H646.973V1077.17H582.115Z" fill="url(#paint4_linear_517_1297)"/>
<path d="M655.901 1077.17V1151.41H711.93V1137.03H672.484V1121.08H707.919V1106.68H672.484V1091.56H711.114V1077.17H655.901Z" fill="url(#paint5_linear_517_1297)"/>
<path d="M771.702 1077.17L742.906 1151.41H760.046L765.222 1137.03H794.008L799.204 1151.41H817.708L788.902 1077.17H771.702ZM779.615 1096.76L788.902 1122.62H770.328L779.615 1096.76Z" fill="url(#paint6_linear_517_1297)"/>
<path d="M825.173 1077.17V1151.41H853.959C862.041 1151.41 869.078 1149.86 875.1 1146.77C881.112 1143.68 885.721 1139.32 888.956 1133.69C892.161 1128.08 893.773 1121.63 893.773 1114.33C893.773 1107.05 892.161 1100.59 888.956 1094.98C885.721 1089.36 881.112 1084.99 875.1 1081.87C869.078 1078.73 862.041 1077.17 853.959 1077.17H825.173ZM841.746 1091.83H854.237C861.404 1091.83 867.018 1093.81 871.099 1097.76C875.16 1101.7 877.19 1107.23 877.19 1114.33C877.19 1121.45 875.16 1126.95 871.099 1130.87C867.018 1134.79 861.404 1136.75 854.237 1136.75H841.746V1091.83Z" fill="url(#paint7_linear_517_1297)"/>
<path d="M952.808 1077.17L932.672 1131.83L912.446 1077.17H893.684L923.007 1151.41H940.874L970.207 1077.17H952.808Z" fill="url(#paint8_linear_517_1297)"/>
<path d="M977.683 1077.17V1151.41H1033.71V1137.03H994.266V1121.08H1029.7V1106.68H994.266V1091.56H1032.91V1077.17H977.683Z" fill="url(#paint9_linear_517_1297)"/>
<path d="M1044.82 1077.17V1151.41H1061.4V1128H1074.61L1089.01 1151.41H1108.23L1091.01 1124.72C1095.39 1122.65 1098.74 1119.73 1101.08 1115.94C1103.42 1112.14 1104.59 1107.68 1104.59 1102.59C1104.59 1097.48 1103.41 1093.02 1101.04 1089.2C1098.67 1085.36 1095.23 1082.4 1090.75 1080.31C1086.24 1078.21 1080.91 1077.17 1074.7 1077.17H1044.82ZM1061.4 1091.83H1073.97C1078.41 1091.83 1081.86 1092.76 1084.33 1094.62C1086.77 1096.47 1088.01 1099.12 1088.01 1102.59C1088.01 1106.05 1086.77 1108.71 1084.33 1110.56C1081.86 1112.41 1078.41 1113.34 1073.97 1113.34H1061.4V1091.83Z" fill="url(#paint10_linear_517_1297)"/>
<path d="M1110.15 1077.17V1091.83H1134.29V1151.41H1150.88V1091.83H1175V1077.17H1110.15Z" fill="url(#paint11_linear_517_1297)"/>
<path d="M1183.94 1151.41H1200.52V1077.17H1183.94V1151.41Z" fill="url(#paint12_linear_517_1297)"/>
<path d="M1227.21 1077.94C1222.65 1079.68 1219.05 1082.14 1216.41 1085.36C1213.77 1088.58 1212.44 1092.39 1212.44 1096.76C1212.44 1103.49 1214.51 1108.73 1218.65 1112.42C1222.77 1116.12 1229 1118.77 1237.32 1120.34C1241.93 1121.2 1245.53 1122.08 1248.11 1122.99C1250.7 1123.9 1252.57 1125 1253.76 1126.28C1254.95 1127.55 1255.53 1129.15 1255.53 1131.09C1255.53 1133.53 1254.44 1135.51 1252.21 1137.03C1250 1138.54 1247.2 1139.3 1243.78 1139.3C1239.11 1139.3 1235.3 1138.22 1232.36 1136.06C1229.41 1133.9 1227.69 1131.04 1227.21 1127.46H1210.17C1210.41 1132.68 1211.94 1137.24 1214.78 1141.12C1217.6 1145.01 1221.42 1148 1226.25 1150.1C1231.08 1152.19 1236.53 1153.24 1242.6 1153.24C1248.19 1153.24 1253.27 1152.31 1257.82 1150.46C1262.38 1148.6 1265.98 1145.94 1268.61 1142.49C1271.25 1139.03 1272.58 1134.99 1272.58 1130.38C1272.58 1124.49 1270.81 1119.58 1267.25 1115.66C1263.69 1111.73 1257.82 1108.93 1249.62 1107.23C1244.33 1106.14 1240.31 1105.16 1237.55 1104.27C1234.78 1103.38 1232.73 1102.38 1231.4 1101.21C1230.07 1100.06 1229.4 1098.58 1229.4 1096.76C1229.4 1094.45 1230.45 1092.6 1232.58 1091.24C1234.7 1089.88 1237.65 1089.2 1241.42 1089.2C1245.38 1089.2 1248.53 1090.1 1250.89 1091.93C1253.27 1093.75 1254.69 1096.3 1255.17 1099.58H1272.3C1272.05 1094.9 1270.62 1090.73 1267.97 1087.06C1265.34 1083.38 1261.79 1080.51 1257.36 1078.45C1252.92 1076.38 1247.98 1075.35 1242.52 1075.35C1236.86 1075.35 1231.76 1076.22 1227.21 1077.94Z" fill="url(#paint13_linear_517_1297)"/>
<path d="M1282.31 1151.41H1298.9V1077.17H1282.31V1151.41Z" fill="url(#paint14_linear_517_1297)"/>
<path d="M1362.96 1076.26V1121.81L1325.87 1077.17H1312.02V1151.41H1328.61V1105.86L1365.69 1150.5H1379.54V1076.26H1362.96Z" fill="url(#paint15_linear_517_1297)"/>
<path d="M1408.73 1080.31C1402.69 1083.68 1397.96 1088.32 1394.53 1094.25C1391.09 1100.17 1389.37 1106.84 1389.37 1114.24C1389.37 1121.66 1391.09 1128.32 1394.53 1134.25C1397.96 1140.16 1402.69 1144.81 1408.73 1148.17C1414.78 1151.55 1421.57 1153.24 1429.1 1153.24C1436.5 1153.24 1443.19 1151.55 1449.19 1148.17C1455.18 1144.81 1459.88 1140.16 1463.3 1134.25C1466.73 1128.32 1468.46 1121.66 1468.46 1114.24V1109.87H1428.08V1123.9H1450.78C1450.17 1126.39 1448.92 1128.74 1447 1130.95C1445.07 1133.18 1442.61 1134.96 1439.58 1136.29C1436.53 1137.62 1433.17 1138.3 1429.47 1138.3C1425.03 1138.3 1421.02 1137.27 1417.43 1135.19C1413.85 1133.13 1411.04 1130.27 1409 1126.59C1406.97 1122.91 1405.96 1118.8 1405.96 1114.24C1405.96 1109.69 1406.97 1105.6 1409 1101.99C1411.04 1098.38 1413.85 1095.56 1417.43 1093.52C1421.02 1091.48 1425.03 1090.46 1429.47 1090.46C1433.83 1090.46 1437.71 1091.36 1441.07 1093.15C1444.45 1094.94 1446.96 1097.27 1448.59 1100.13H1466.81C1465.36 1095.45 1462.88 1091.23 1459.4 1087.47C1455.89 1083.7 1451.54 1080.72 1446.35 1078.54C1441.16 1076.34 1435.41 1075.25 1429.1 1075.25C1421.57 1075.25 1414.78 1076.94 1408.73 1080.31Z" fill="url(#paint16_linear_517_1297)"/>
<path d="M1526.95 1077.17L1498.15 1151.41H1515.29L1520.46 1137.03H1549.26L1554.46 1151.41H1572.95L1544.15 1077.17H1526.95ZM1534.86 1096.76L1544.15 1122.62H1525.57L1534.86 1096.76Z" fill="url(#paint17_linear_517_1297)"/>
<path d="M1592.85 1080.31C1586.81 1083.68 1582.08 1088.32 1578.64 1094.25C1575.21 1100.17 1573.5 1106.84 1573.5 1114.24C1573.5 1121.66 1575.21 1128.32 1578.64 1134.25C1582.08 1140.16 1586.81 1144.81 1592.85 1148.17C1598.89 1151.55 1605.69 1153.24 1613.22 1153.24C1620.62 1153.24 1627.32 1151.55 1633.29 1148.17C1639.29 1144.81 1644 1140.16 1647.42 1134.25C1650.85 1128.32 1652.57 1121.66 1652.57 1114.24V1109.87H1612.21V1123.9H1634.9C1634.27 1126.39 1633.03 1128.74 1631.11 1130.95C1629.2 1133.18 1626.73 1134.96 1623.69 1136.29C1620.65 1137.62 1617.28 1138.3 1613.58 1138.3C1609.14 1138.3 1605.14 1137.27 1601.56 1135.19C1597.97 1133.13 1595.16 1130.27 1593.13 1126.59C1591.09 1122.91 1590.08 1118.8 1590.08 1114.24C1590.08 1109.69 1591.09 1105.6 1593.13 1101.99C1595.16 1098.38 1597.97 1095.56 1601.56 1093.52C1605.14 1091.48 1609.14 1090.46 1613.58 1090.46C1617.95 1090.46 1621.82 1091.36 1625.2 1093.15C1628.56 1094.94 1631.07 1097.27 1632.71 1100.13H1650.93C1649.48 1095.45 1646.99 1091.23 1643.5 1087.47C1640.01 1083.7 1635.67 1080.72 1630.47 1078.54C1625.28 1076.34 1619.53 1075.25 1613.22 1075.25C1605.69 1075.25 1598.89 1076.94 1592.85 1080.31Z" fill="url(#paint18_linear_517_1297)"/>
<path d="M1662.4 1077.17V1151.41H1718.43V1137.03H1678.98V1121.08H1714.42V1106.68H1678.98V1091.56H1717.62V1077.17H1662.4Z" fill="url(#paint19_linear_517_1297)"/>
<path d="M1780.47 1076.26V1121.81L1743.39 1077.17H1729.54V1151.41H1746.12V1105.86L1783.21 1150.5H1797.06V1076.26H1780.47Z" fill="url(#paint20_linear_517_1297)"/>
<path d="M1826.25 1080.31C1820.21 1083.68 1815.48 1088.32 1812.04 1094.25C1808.6 1100.17 1806.9 1106.84 1806.9 1114.24C1806.9 1121.66 1808.6 1128.32 1812.04 1134.25C1815.48 1140.16 1820.21 1144.81 1826.25 1148.17C1832.29 1151.55 1839.09 1153.24 1846.61 1153.24C1853.23 1153.24 1859.3 1151.89 1864.78 1149.18C1870.27 1146.48 1874.73 1142.91 1878.13 1138.48C1881.53 1134.04 1883.63 1129.3 1884.43 1124.27H1867.66C1867.23 1126.52 1866.03 1128.71 1864.06 1130.83C1862.09 1132.95 1859.58 1134.69 1856.6 1136.02C1853.58 1137.35 1850.38 1138.02 1846.98 1138.02C1842.55 1138.02 1838.53 1137.01 1834.95 1134.98C1831.37 1132.94 1828.57 1130.1 1826.53 1126.46C1824.49 1122.8 1823.48 1118.74 1823.48 1114.24C1823.48 1109.69 1824.49 1105.6 1826.53 1101.99C1828.57 1098.38 1831.37 1095.56 1834.95 1093.52C1838.53 1091.48 1842.55 1090.46 1846.98 1090.46C1852.14 1090.46 1856.53 1091.69 1860.14 1094.12C1863.76 1096.55 1866.02 1099.58 1866.93 1103.23H1883.69C1882.66 1097.94 1880.51 1093.17 1877.22 1088.92C1873.95 1084.66 1869.69 1081.33 1864.42 1078.9C1859.17 1076.47 1853.23 1075.25 1846.61 1075.25C1839.09 1075.25 1832.29 1076.94 1826.25 1080.31Z" fill="url(#paint21_linear_517_1297)"/>
<path d="M1936.8 1077.17L1919.05 1112.24L1901.18 1077.17H1882.24L1910.02 1128.09V1151.41H1926.6V1128.09L1954.39 1077.17H1936.8Z" fill="url(#paint22_linear_517_1297)"/>
<path d="M679.472 -0.000195124L382.784 569.459H510.449C572.182 569.459 628.788 535.12 657.305 480.367L907.579 -0.000195124H679.472Z" fill="url(#paint23_linear_517_1297)"/>
<path d="M1459.15 -0.000195124L1162.45 569.459H1290.13C1351.86 569.459 1408.47 535.12 1436.99 480.377L1687.27 -0.000195124H1459.15Z" fill="url(#paint24_linear_517_1297)"/>
<path d="M1724.97 -0.000658227L1640.88 161.402L1953.09 -0.000658227H1724.97Z" fill="url(#paint25_linear_517_1297)"/>
<path d="M1428.27 569.459H1656.4L1612.63 215.608L1428.27 569.459Z" fill="url(#paint26_linear_517_1297)"/>
<path d="M1169.99 -0.000195124H941.869L645.182 569.459H873.299L1021.64 284.725C1176.38 284.725 1318.26 198.668 1389.75 61.4517L1421.76 -0.000195124H1169.99Z" fill="url(#paint27_linear_517_1297)"/>
<path d="M14.8309 897.683C4.937 875.178 0 850.504 0 823.65C0 796.816 4.937 772.142 14.8309 749.627C24.7149 727.123 38.7594 706.081 56.9248 686.503H111.112C92.947 705.474 78.6635 726.575 68.2719 749.786C57.8704 772.998 52.6746 797.622 52.6746 823.65C52.6746 849.688 57.8704 874.322 68.2719 897.523C78.6635 920.745 92.947 941.836 111.112 960.807H56.9248C38.7594 941.228 24.7149 920.187 14.8309 897.683Z" fill="#4E5154"/>
<path d="M258.258 792.773C243.726 805.892 226.118 816.193 205.425 823.648C184.741 831.123 162.883 834.955 139.87 835.154V788.533C160.265 788.135 179.127 783.944 196.486 775.962C213.845 767.999 226.267 757.349 233.733 744.022H144.419V697.699H377.553V744.022H290.349C289.543 746.858 288.229 750.382 286.417 754.622L388.143 793.072L368.764 835.463L258.258 792.773ZM391.776 901.155H287.024V959.292H234.947V901.155H130.185V853.926H391.776V901.155Z" fill="#4E5154"/>
<path d="M410.846 960.808C429.011 941.837 443.295 920.746 453.696 897.524C464.088 874.323 469.283 849.689 469.283 823.651C469.283 797.613 464.088 772.999 453.696 749.787C443.295 726.566 429.011 705.475 410.846 686.504H465.053C483.219 706.082 497.243 727.124 507.127 749.628C517.021 772.143 521.968 796.817 521.968 823.651C521.968 850.505 517.021 875.179 507.127 897.684C497.243 920.188 483.219 941.229 465.053 960.808H410.846Z" fill="#4E5154"/>
<path d="M795.804 834.55H744.632V694.676H795.804V834.55ZM744.632 885.72H618.679V911.151H744.632V885.72ZM605.958 743.726C599.896 748.573 596.88 755.033 596.88 763.095C596.88 771.177 599.896 777.637 605.958 782.474C612.01 787.322 620.092 789.74 630.185 789.74C640.268 789.74 648.351 787.322 654.402 782.474C660.464 777.637 663.49 771.177 663.49 763.095C663.49 755.033 660.464 748.573 654.402 743.726C648.351 738.879 640.268 736.46 630.185 736.46C620.092 736.46 612.01 738.879 605.958 743.726ZM795.804 953.243H567.507V843.637H795.804V953.243ZM674.081 703.455C686.811 709.108 696.685 717.081 703.752 727.373C710.82 737.674 714.353 749.588 714.353 763.095C714.353 776.631 710.82 788.536 703.752 798.828C696.685 809.129 686.811 817.101 674.081 822.745C661.37 828.398 646.738 831.226 630.185 831.226C613.632 831.226 599 828.398 586.28 822.745C573.569 817.101 563.675 809.129 556.608 798.828C549.541 788.536 546.007 776.631 546.007 763.095C546.007 749.588 549.541 737.674 556.608 727.373C563.675 717.081 573.569 709.108 586.28 703.455C599 697.811 613.632 694.984 630.185 694.984C646.738 694.984 661.37 697.811 674.081 703.455Z" fill="#4E5154"/>
<path d="M1094.33 694.676V856.357H1048.01V793.383H1029.55V853.63H983.819V695.89H1029.55V747.06H1048.01V694.676H1094.33ZM893.898 807.606H912.661V738.58H893.898V807.606ZM855.139 865.435H1094.33V956.259H1043.76V908.125H855.139V865.435ZM912.063 848.484H835.162V807.606H849.385V738.58H836.973V697.702H969.595V738.58H957.183V803.973C963.225 802.968 969.078 801.355 974.731 799.126V839.397C960.597 845.449 939.715 848.484 912.063 848.484Z" fill="#4E5154"/>
<path d="M1378.63 873.31H1142.77V700.729H1375.61V745.549H1193.32V765.824H1371.37V808.215H1193.32V828.5H1378.63V873.31ZM1389.83 944.157H1128.23V897.227H1389.83V944.157Z" fill="#4E5154"/>
<path d="M1615.39 831.525H1433.74V783.997H1615.39V748.265H1433.74V700.728H1666.87V876.334H1615.39V831.525ZM1681.1 896.311V944.156H1419.5V896.311H1506.09V854.537H1557.56V896.311H1681.1Z" fill="#4E5154"/>
<path d="M1960.87 953.243H1909.69V694.676H1960.87V953.243ZM1872.14 843.03H1773.14V895.106H1829.15C1841.26 895.106 1853.48 893.951 1865.79 891.632C1878.1 889.303 1888.18 886.327 1896.07 882.694V928.708C1888.39 932.55 1878.25 935.576 1865.64 937.796C1853.01 940.015 1840.15 941.13 1827.03 941.13H1722.28V797.613H1821.29V746.752H1721.67V700.728H1872.14V843.03Z" fill="#4E5154"/>
<path d="M2275.14 838.792H2244.86V953.245H2193.69V694.678H2244.86V789.135H2275.14V838.792ZM2116.49 820.926C2116.49 770.064 2106.69 744.634 2087.11 744.634C2067.33 744.634 2057.43 770.064 2057.43 820.926C2057.43 871.797 2067.33 897.228 2087.11 897.228C2106.69 897.228 2116.49 871.797 2116.49 820.926ZM2145.85 728.44C2159.98 748.923 2167.04 779.759 2167.04 820.926C2167.04 862.103 2159.98 892.938 2145.85 913.422C2131.72 933.906 2112.14 944.158 2087.11 944.158C2062.08 944.158 2042.45 933.906 2028.23 913.422C2014 892.938 2006.88 862.103 2006.88 820.926C2006.88 779.759 2014 748.923 2028.23 728.44C2042.45 707.956 2062.08 697.704 2087.11 697.704C2112.14 697.704 2131.72 707.956 2145.85 728.44Z" fill="#4E5154"/>
<defs>
<linearGradient id="paint0_linear_517_1297" x1="546.974" y1="1223.25" x2="1348.61" y2="1676.76" gradientUnits="userSpaceOnUse">
<stop stop-color="#008DC7"/>
<stop offset="0.275773" stop-color="#008DC7"/>
<stop offset="0.760309" stop-color="#825CA3"/>
<stop offset="1" stop-color="#825CA3"/>
</linearGradient>
<linearGradient id="paint1_linear_517_1297" x1="563.378" y1="1194.26" x2="1365.02" y2="1647.77" gradientUnits="userSpaceOnUse">
<stop stop-color="#008DC7"/>
<stop offset="0.275773" stop-color="#008DC7"/>
<stop offset="0.760309" stop-color="#825CA3"/>
<stop offset="1" stop-color="#825CA3"/>
</linearGradient>
<linearGradient id="paint2_linear_517_1297" x1="582.743" y1="1160.03" x2="1384.39" y2="1613.54" gradientUnits="userSpaceOnUse">
<stop stop-color="#008DC7"/>
<stop offset="0.275773" stop-color="#008DC7"/>
<stop offset="0.760309" stop-color="#825CA3"/>
<stop offset="1" stop-color="#825CA3"/>
</linearGradient>
<linearGradient id="paint3_linear_517_1297" x1="591.445" y1="1144.64" x2="1393.1" y2="1598.16" gradientUnits="userSpaceOnUse">
<stop stop-color="#008DC7"/>
<stop offset="0.275773" stop-color="#008DC7"/>
<stop offset="0.760309" stop-color="#825CA3"/>
<stop offset="1" stop-color="#825CA3"/>
</linearGradient>
<linearGradient id="paint4_linear_517_1297" x1="612.98" y1="1106.58" x2="1414.63" y2="1560.1" gradientUnits="userSpaceOnUse">
<stop stop-color="#008DC7"/>
<stop offset="0.275773" stop-color="#008DC7"/>
<stop offset="0.760309" stop-color="#825CA3"/>
<stop offset="1" stop-color="#825CA3"/>
</linearGradient>
<linearGradient id="paint5_linear_517_1297" x1="626.773" y1="1082.2" x2="1428.41" y2="1535.71" gradientUnits="userSpaceOnUse">
<stop stop-color="#008DC7"/>
<stop offset="0.275773" stop-color="#008DC7"/>
<stop offset="0.760309" stop-color="#825CA3"/>
<stop offset="1" stop-color="#825CA3"/>
</linearGradient>
<linearGradient id="paint6_linear_517_1297" x1="646.751" y1="1046.88" x2="1448.39" y2="1500.4" gradientUnits="userSpaceOnUse">
<stop stop-color="#008DC7"/>
<stop offset="0.275773" stop-color="#008DC7"/>
<stop offset="0.760309" stop-color="#825CA3"/>
<stop offset="1" stop-color="#825CA3"/>
</linearGradient>
<linearGradient id="paint7_linear_517_1297" x1="666.173" y1="1012.55" x2="1467.81" y2="1466.06" gradientUnits="userSpaceOnUse">
<stop stop-color="#008DC7"/>
<stop offset="0.275773" stop-color="#008DC7"/>
<stop offset="0.760309" stop-color="#825CA3"/>
<stop offset="1" stop-color="#825CA3"/>
</linearGradient>
<linearGradient id="paint8_linear_517_1297" x1="690.561" y1="969.442" x2="1492.2" y2="1422.95" gradientUnits="userSpaceOnUse">
<stop stop-color="#008DC7"/>
<stop offset="0.275773" stop-color="#008DC7"/>
<stop offset="0.760309" stop-color="#825CA3"/>
<stop offset="1" stop-color="#825CA3"/>
</linearGradient>
<linearGradient id="paint9_linear_517_1297" x1="704.79" y1="944.298" x2="1506.42" y2="1397.8" gradientUnits="userSpaceOnUse">
<stop stop-color="#008DC7"/>
<stop offset="0.275773" stop-color="#008DC7"/>
<stop offset="0.760309" stop-color="#825CA3"/>
<stop offset="1" stop-color="#825CA3"/>
</linearGradient>
<linearGradient id="paint10_linear_517_1297" x1="719.285" y1="918.665" x2="1520.93" y2="1372.18" gradientUnits="userSpaceOnUse">
<stop stop-color="#008DC7"/>
<stop offset="0.275773" stop-color="#008DC7"/>
<stop offset="0.760309" stop-color="#825CA3"/>
<stop offset="1" stop-color="#825CA3"/>
</linearGradient>
<linearGradient id="paint11_linear_517_1297" x1="740.997" y1="880.288" x2="1542.64" y2="1333.8" gradientUnits="userSpaceOnUse">
<stop stop-color="#008DC7"/>
<stop offset="0.275773" stop-color="#008DC7"/>
<stop offset="0.760309" stop-color="#825CA3"/>
<stop offset="1" stop-color="#825CA3"/>
</linearGradient>
<linearGradient id="paint12_linear_517_1297" x1="750.116" y1="864.186" x2="1551.75" y2="1317.69" gradientUnits="userSpaceOnUse">
<stop stop-color="#008DC7"/>
<stop offset="0.275773" stop-color="#008DC7"/>
<stop offset="0.760309" stop-color="#825CA3"/>
<stop offset="1" stop-color="#825CA3"/>
</linearGradient>
<linearGradient id="paint13_linear_517_1297" x1="762.117" y1="842.959" x2="1563.76" y2="1296.47" gradientUnits="userSpaceOnUse">
<stop stop-color="#008DC7"/>
<stop offset="0.275773" stop-color="#008DC7"/>
<stop offset="0.760309" stop-color="#825CA3"/>
<stop offset="1" stop-color="#825CA3"/>
</linearGradient>
<linearGradient id="paint14_linear_517_1297" x1="773.971" y1="822.025" x2="1575.6" y2="1275.53" gradientUnits="userSpaceOnUse">
<stop stop-color="#008DC7"/>
<stop offset="0.275773" stop-color="#008DC7"/>
<stop offset="0.760309" stop-color="#825CA3"/>
<stop offset="1" stop-color="#825CA3"/>
</linearGradient>
<linearGradient id="paint15_linear_517_1297" x1="787.532" y1="798.033" x2="1589.17" y2="1251.55" gradientUnits="userSpaceOnUse">
<stop stop-color="#008DC7"/>
<stop offset="0.275773" stop-color="#008DC7"/>
<stop offset="0.760309" stop-color="#825CA3"/>
<stop offset="1" stop-color="#825CA3"/>
</linearGradient>
<linearGradient id="paint16_linear_517_1297" x1="807.629" y1="762.506" x2="1609.27" y2="1216.02" gradientUnits="userSpaceOnUse">
<stop stop-color="#008DC7"/>
<stop offset="0.275773" stop-color="#008DC7"/>
<stop offset="0.760309" stop-color="#825CA3"/>
<stop offset="1" stop-color="#825CA3"/>
</linearGradient>
<linearGradient id="paint17_linear_517_1297" x1="829.852" y1="723.223" x2="1631.49" y2="1176.74" gradientUnits="userSpaceOnUse">
<stop stop-color="#008DC7"/>
<stop offset="0.275773" stop-color="#008DC7"/>
<stop offset="0.760309" stop-color="#825CA3"/>
<stop offset="1" stop-color="#825CA3"/>
</linearGradient>
<linearGradient id="paint18_linear_517_1297" x1="852.271" y1="683.605" x2="1653.91" y2="1137.12" gradientUnits="userSpaceOnUse">
<stop stop-color="#008DC7"/>
<stop offset="0.275773" stop-color="#008DC7"/>
<stop offset="0.760309" stop-color="#825CA3"/>
<stop offset="1" stop-color="#825CA3"/>
</linearGradient>
<linearGradient id="paint19_linear_517_1297" x1="870.8" y1="650.863" x2="1672.43" y2="1104.37" gradientUnits="userSpaceOnUse">
<stop stop-color="#008DC7"/>
<stop offset="0.275773" stop-color="#008DC7"/>
<stop offset="0.760309" stop-color="#825CA3"/>
<stop offset="1" stop-color="#825CA3"/>
</linearGradient>
<linearGradient id="paint20_linear_517_1297" x1="888.757" y1="619.105" x2="1690.4" y2="1072.62" gradientUnits="userSpaceOnUse">
<stop stop-color="#008DC7"/>
<stop offset="0.275773" stop-color="#008DC7"/>
<stop offset="0.760309" stop-color="#825CA3"/>
<stop offset="1" stop-color="#825CA3"/>
</linearGradient>
<linearGradient id="paint21_linear_517_1297" x1="908.801" y1="583.667" x2="1710.44" y2="1037.18" gradientUnits="userSpaceOnUse">
<stop stop-color="#008DC7"/>
<stop offset="0.275773" stop-color="#008DC7"/>
<stop offset="0.760309" stop-color="#825CA3"/>
<stop offset="1" stop-color="#825CA3"/>
</linearGradient>
<linearGradient id="paint22_linear_517_1297" x1="929.508" y1="547.063" x2="1731.15" y2="1000.57" gradientUnits="userSpaceOnUse">
<stop stop-color="#008DC7"/>
<stop offset="0.275773" stop-color="#008DC7"/>
<stop offset="0.760309" stop-color="#825CA3"/>
<stop offset="1" stop-color="#825CA3"/>
</linearGradient>
<linearGradient id="paint23_linear_517_1297" x1="254.017" y1="-133.567" x2="1368.54" y2="1058.33" gradientUnits="userSpaceOnUse">
<stop stop-color="#008DC7"/>
<stop offset="0.275773" stop-color="#008DC7"/>
<stop offset="0.760309" stop-color="#825CA3"/>
<stop offset="1" stop-color="#825CA3"/>
</linearGradient>
<linearGradient id="paint24_linear_517_1297" x1="669.971" y1="-522.519" x2="1784.5" y2="669.375" gradientUnits="userSpaceOnUse">
<stop stop-color="#008DC7"/>
<stop offset="0.275773" stop-color="#008DC7"/>
<stop offset="0.760309" stop-color="#825CA3"/>
<stop offset="1" stop-color="#825CA3"/>
</linearGradient>
<linearGradient id="paint25_linear_517_1297" x1="970.282" y1="-803.334" x2="2084.81" y2="388.563" gradientUnits="userSpaceOnUse">
<stop stop-color="#008DC7"/>
<stop offset="0.275773" stop-color="#008DC7"/>
<stop offset="0.760309" stop-color="#825CA3"/>
<stop offset="1" stop-color="#825CA3"/>
</linearGradient>
<linearGradient id="paint26_linear_517_1297" x1="667.186" y1="-519.917" x2="1781.71" y2="671.978" gradientUnits="userSpaceOnUse">
<stop stop-color="#008DC7"/>
<stop offset="0.275773" stop-color="#008DC7"/>
<stop offset="0.760309" stop-color="#825CA3"/>
<stop offset="1" stop-color="#825CA3"/>
</linearGradient>
<linearGradient id="paint27_linear_517_1297" x1="461.167" y1="-327.271" x2="1575.69" y2="864.625" gradientUnits="userSpaceOnUse">
<stop stop-color="#008DC7"/>
<stop offset="0.275773" stop-color="#008DC7"/>
<stop offset="0.760309" stop-color="#825CA3"/>
<stop offset="1" stop-color="#825CA3"/>
</linearGradient>
</defs>
</svg>
