<svg width="3408" height="403" viewBox="0 0 3408 403" fill="none" xmlns="http://www.w3.org/2000/svg">
<path d="M1110.38 331.659C1100.32 308.787 1095.31 283.714 1095.31 256.432C1095.31 229.15 1100.32 204.078 1110.38 181.205C1120.43 158.342 1134.69 136.953 1153.15 117.056H1208.22C1189.76 136.336 1175.24 157.775 1164.68 181.364C1154.11 204.954 1148.84 229.976 1148.84 256.432C1148.84 282.888 1154.11 307.921 1164.68 331.5C1175.24 355.1 1189.76 376.529 1208.22 395.809H1153.15C1134.69 375.912 1120.43 354.532 1110.38 331.659Z" fill="#E6E6E6"/>
<path d="M1357.75 225.049C1342.98 238.387 1325.09 248.848 1304.06 256.432C1283.04 264.027 1260.83 267.918 1237.44 268.117V220.74C1258.16 220.331 1277.33 216.081 1294.97 207.969C1312.61 199.877 1325.24 189.048 1332.83 175.512H1242.06V128.432H1478.98V175.512H1390.36C1389.53 178.388 1388.2 181.971 1386.37 186.281L1489.74 225.358L1470.05 268.436L1357.75 225.049ZM1493.44 335.193H1386.98V394.266H1334.06V335.193H1227.6V287.198H1493.44V335.193Z" fill="#E6E6E6"/>
<path d="M1512.81 395.806C1531.27 376.526 1545.79 355.097 1556.36 331.497C1566.92 307.918 1572.19 282.885 1572.19 256.429C1572.19 229.973 1566.92 204.951 1556.36 181.361C1545.79 157.772 1531.27 136.333 1512.81 117.053H1567.89C1586.36 136.95 1600.6 158.339 1610.65 181.202C1620.71 204.085 1625.73 229.157 1625.73 256.429C1625.73 283.711 1620.71 308.784 1610.65 331.657C1600.6 354.529 1586.36 375.909 1567.89 395.806H1512.81Z" fill="#E6E6E6"/>
<path d="M1904.01 267.504H1852.01V125.361H1904.01V267.504ZM1852 319.5H1724.01V345.349H1852V319.5ZM1711.08 175.207C1704.93 180.134 1701.85 186.693 1701.85 194.895C1701.85 203.106 1704.93 209.665 1711.08 214.582C1717.24 219.509 1725.44 221.968 1735.69 221.968C1745.95 221.968 1754.16 219.509 1760.32 214.582C1766.47 209.665 1769.56 203.106 1769.56 194.895C1769.56 186.693 1766.47 180.134 1760.32 175.207C1754.16 170.28 1745.95 167.821 1735.69 167.821C1725.44 167.821 1717.24 170.28 1711.08 175.207ZM1904.01 388.118H1672.01V276.741H1904.01V388.118ZM1780.32 134.289C1793.25 140.032 1803.28 148.134 1810.46 158.595C1817.64 169.056 1821.23 181.159 1821.23 194.895C1821.23 208.64 1817.64 220.744 1810.46 231.205C1803.28 241.666 1793.25 249.767 1780.32 255.51C1767.4 261.253 1752.52 264.12 1735.69 264.12C1718.88 264.12 1704.01 261.253 1691.08 255.51C1678.16 249.767 1668.12 241.666 1660.93 231.205C1653.75 220.744 1650.16 208.64 1650.16 194.895C1650.16 181.159 1653.75 169.056 1660.93 158.595C1668.12 148.134 1678.16 140.032 1691.08 134.289C1704.01 128.546 1718.88 125.669 1735.69 125.669C1752.52 125.669 1767.4 128.546 1780.32 134.289Z" fill="#E6E6E6"/>
<path d="M2207.38 125.36V289.66H2160.29V225.66H2141.53V286.883H2095.07V126.595H2141.53V178.591H2160.29V125.36H2207.38ZM2003.69 240.122H2022.77V169.971H2003.69V240.122ZM1964.31 298.886H2207.38V391.184H2155.98V342.273H1964.31V298.886ZM2022.15 281.657H1944V240.122H1958.46V169.971H1945.84V128.436H2080.62V169.971H2067.99V236.429C2074.14 235.414 2080.09 233.762 2085.84 231.503V272.431C2071.48 278.582 2050.25 281.657 2022.15 281.657Z" fill="#E6E6E6"/>
<path d="M2496.28 306.891H2256.6V131.514H2493.2V177.05H2307.98V197.664H2488.89V240.742H2307.98V261.355H2496.28V306.891ZM2507.66 378.884H2241.83V331.197H2507.66V378.884Z" fill="#E6E6E6"/>
<path d="M2736.88 264.428H2552.28V216.125H2736.88V179.825H2552.28V131.512H2789.19V309.965H2736.88V264.428ZM2803.65 330.27V378.892H2537.81V330.27H2625.81V287.819H2678.11V330.27H2803.65Z" fill="#E6E6E6"/>
<path d="M3087.94 388.118H3035.95V125.361H3087.94V388.118ZM2997.79 276.124H2897.18V329.036H2954.1C2966.41 329.036 2978.82 327.861 2991.33 325.502C3003.84 323.143 3014.1 320.117 3022.1 316.424V363.195C3014.3 367.087 3003.99 370.163 2991.17 372.422C2978.35 374.682 2965.28 375.806 2951.95 375.806H2845.49V229.97H2946.1V178.283H2844.88V131.512H2997.79V276.124Z" fill="#E6E6E6"/>
<path d="M3407.32 271.814H3376.55V388.118H3324.54V125.361H3376.55V221.36H3407.32V271.814ZM3246.09 253.659C3246.09 201.971 3236.14 176.132 3216.25 176.132C3196.13 176.132 3186.09 201.971 3186.09 253.659C3186.09 305.346 3196.13 331.195 3216.25 331.195C3236.14 331.195 3246.09 305.346 3246.09 253.659ZM3275.94 159.67C3290.28 180.482 3297.47 211.825 3297.47 253.659C3297.47 295.503 3290.28 326.836 3275.94 347.658C3261.57 368.47 3241.68 378.891 3216.25 378.891C3190.81 378.891 3170.86 368.47 3156.41 347.658C3141.94 326.836 3134.71 295.503 3134.71 253.659C3134.71 211.825 3141.94 180.482 3156.41 159.67C3170.86 138.857 3190.81 128.436 3216.25 128.436C3241.68 128.436 3261.57 138.857 3275.94 159.67Z" fill="#E6E6E6"/>
<path d="M1874.38 1.79067V71.1553H1926.72V57.7082H1889.88V42.808H1922.98V29.3609H1889.88V15.2377H1925.97V1.79067H1874.38Z" fill="url(#paint0_linear_527_389)"/>
<path d="M1949.8 2.51815C1945.55 4.13059 1942.17 6.4396 1939.7 9.4455C1937.23 12.4614 1936 16.005 1936 20.0859C1936 26.3863 1937.94 31.2629 1941.8 34.7267C1945.65 38.1905 1951.47 40.6591 1959.23 42.1322C1963.55 42.9284 1966.91 43.7544 1969.33 44.6004C1971.74 45.4465 1973.5 46.4721 1974.6 47.6665C1975.71 48.8609 1976.25 50.3539 1976.25 52.1754C1976.25 54.4348 1975.24 56.2957 1973.16 57.7091C1971.09 59.1225 1968.46 59.839 1965.28 59.839C1960.91 59.839 1957.36 58.8236 1954.6 56.8131C1951.86 54.7925 1950.24 52.1153 1949.8 48.7709H1933.87C1934.1 53.6481 1935.53 57.9085 1938.18 61.5315C1940.82 65.1744 1944.39 67.9512 1948.91 69.912C1953.42 71.8728 1958.5 72.8584 1964.17 72.8584C1969.41 72.8584 1974.13 71.982 1978.39 70.2601C1982.65 68.5282 1986.01 66.05 1988.48 62.8152C1990.94 59.5803 1992.18 55.808 1992.18 51.4883C1992.18 45.9941 1990.53 41.4055 1987.2 37.7527C1983.88 34.0898 1978.39 31.4722 1970.73 29.8697C1965.79 28.8545 1962.04 27.9287 1959.46 27.1025C1956.87 26.2864 1954.95 25.3308 1953.71 24.2558C1952.46 23.1709 1951.85 21.7879 1951.85 20.0859C1951.85 17.926 1952.83 16.214 1954.82 14.93C1956.79 13.666 1959.56 13.0285 1963.07 13.0285C1966.76 13.0285 1969.71 13.875 1971.92 15.577C1974.13 17.279 1975.47 19.6574 1975.91 22.7231H1991.92C1991.69 18.3536 1990.35 14.4619 1987.87 11.028C1985.41 7.59415 1982.11 4.90692 1977.96 2.98593C1973.81 1.04503 1969.2 0.0893572 1964.09 0.0893572C1958.81 0.0893572 1954.05 0.89576 1949.8 2.51815Z" fill="url(#paint1_linear_527_389)"/>
<path d="M1996.44 1.79067V15.4862H2018.98V71.1553H2034.47V15.4862H2057.03V1.79067H1996.44Z" fill="url(#paint2_linear_527_389)"/>
<path d="M2076.95 1.79067L2050.05 71.1553H2066.05L2070.9 57.7082H2097.8L2102.64 71.1553H2119.92L2093.03 1.79067H2076.95ZM2084.35 20.085L2093.03 44.2514H2075.66L2084.35 20.085Z" fill="url(#paint3_linear_527_389)"/>
<path d="M2112.95 1.79067V15.4862H2135.5V71.1553H2151V15.4862H2173.54V1.79067H2112.95Z" fill="url(#paint4_linear_527_389)"/>
<path d="M2181.89 1.79067V71.1553H2234.22V57.7082H2197.37V42.808H2230.48V29.3609H2197.37V15.2377H2233.47V1.79067H2181.89Z" fill="url(#paint5_linear_527_389)"/>
<path d="M2290.06 1.79067L2263.16 71.1553H2279.17L2284.01 57.7082H2310.9L2315.76 71.1553H2333.03L2306.15 1.79067H2290.06ZM2297.47 20.085L2306.15 44.2514H2288.79L2297.47 20.085Z" fill="url(#paint6_linear_527_389)"/>
<path d="M2340.02 1.79067V71.1553H2366.91C2374.47 71.1553 2381.05 69.702 2386.67 66.8056C2392.27 63.9191 2396.59 59.8483 2399.6 54.5929C2402.6 49.3475 2404.1 43.3157 2404.1 36.5076C2404.1 29.6995 2402.6 23.6776 2399.6 18.4223C2396.59 13.1769 2392.27 9.09643 2386.67 6.17016C2381.05 3.25384 2374.47 1.79067 2366.91 1.79067H2340.02ZM2355.51 15.4862H2367.17C2373.87 15.4862 2379.12 17.3378 2382.93 21.0205C2386.71 24.7132 2388.61 29.8687 2388.61 36.5076C2388.61 43.1465 2386.71 48.3021 2382.93 51.9649C2379.12 55.6178 2373.87 57.4494 2367.17 57.4494H2355.51V15.4862Z" fill="url(#paint7_linear_527_389)"/>
<path d="M2459.25 1.79067L2440.45 52.8512L2421.55 1.79067H2404.02L2431.42 71.1553H2448.1L2475.52 1.79067H2459.25Z" fill="url(#paint8_linear_527_389)"/>
<path d="M2482.49 1.79067V71.1553H2534.84V57.7082H2497.98V42.808H2531.1V29.3609H2497.98V15.2377H2534.07V1.79067H2482.49Z" fill="url(#paint9_linear_527_389)"/>
<path d="M2545.22 1.79067V71.1553H2560.71V49.2779H2573.05L2586.5 71.1553H2604.46L2588.37 46.2124C2592.46 44.2915 2595.6 41.5442 2597.79 38.0008C2599.97 34.4575 2601.06 30.2971 2601.06 25.5294C2601.06 20.7618 2599.96 16.6009 2597.74 13.0276C2595.52 9.44445 2592.31 6.67782 2588.12 4.71701C2583.91 2.76616 2578.94 1.79067 2573.13 1.79067H2545.22ZM2560.71 15.4862H2572.46C2576.61 15.4862 2579.82 16.352 2582.12 18.0839C2584.41 19.8158 2585.56 22.2946 2585.56 25.5294C2585.56 28.7643 2584.41 31.2522 2582.12 32.9841C2579.82 34.716 2576.61 35.5818 2572.46 35.5818H2560.71V15.4862Z" fill="url(#paint10_linear_527_389)"/>
<path d="M2606.26 1.79067V15.4862H2628.8V71.1553H2644.29V15.4862H2666.84V1.79067H2606.26Z" fill="url(#paint11_linear_527_389)"/>
<path d="M2675.18 71.1553H2690.67V1.79067H2675.18V71.1553Z" fill="url(#paint12_linear_527_389)"/>
<path d="M2715.61 2.51815C2711.36 4.13059 2707.98 6.4396 2705.52 9.4455C2703.05 12.4614 2701.81 16.005 2701.81 20.0859C2701.81 26.3863 2703.75 31.2629 2707.62 34.7267C2711.46 38.1905 2717.28 40.6591 2725.04 42.1322C2729.36 42.9284 2732.73 43.7544 2735.15 44.6004C2737.56 45.4465 2739.31 46.4721 2740.41 47.6665C2741.53 48.8609 2742.07 50.3539 2742.07 52.1754C2742.07 54.4348 2741.05 56.2957 2738.97 57.7091C2736.9 59.1225 2734.27 59.839 2731.1 59.839C2726.74 59.839 2723.17 58.8236 2720.42 56.8131C2717.67 54.7925 2716.06 52.1153 2715.61 48.7709H2699.69C2699.91 53.6481 2701.35 57.9085 2703.99 61.5315C2706.63 65.1744 2710.2 67.9512 2714.72 69.912C2719.23 71.8728 2724.32 72.8584 2729.98 72.8584C2735.22 72.8584 2739.95 71.982 2744.22 70.2601C2748.47 68.5282 2751.83 66.05 2754.29 62.8152C2756.76 59.5803 2758 55.808 2758 51.4883C2758 45.9941 2756.34 41.4055 2753.01 37.7527C2749.69 34.0898 2744.22 31.4722 2736.54 29.8697C2731.6 28.8545 2727.85 27.9287 2725.27 27.1025C2722.69 26.2864 2720.76 25.3308 2719.52 24.2558C2718.28 23.1709 2717.66 21.7879 2717.66 20.0859C2717.66 17.926 2718.64 16.214 2720.64 14.93C2722.62 13.666 2725.36 13.0285 2728.9 13.0285C2732.58 13.0285 2735.53 13.875 2737.74 15.577C2739.95 17.279 2741.28 19.6574 2741.73 22.7231H2757.74C2757.5 18.3536 2756.16 14.4619 2753.69 11.028C2751.22 7.59415 2747.92 4.90692 2743.78 2.98593C2739.64 1.04503 2735.01 0.0893572 2729.9 0.0893572C2724.63 0.0893572 2719.86 0.89576 2715.61 2.51815Z" fill="url(#paint13_linear_527_389)"/>
<path d="M2767.09 71.1553H2782.59V1.79067H2767.09V71.1553Z" fill="url(#paint14_linear_527_389)"/>
<path d="M2842.43 0.944431V43.4951L2807.78 1.79068H2794.84V71.1553H2810.34V28.5949L2844.99 70.2993H2857.92V0.944431H2842.43Z" fill="url(#paint15_linear_527_389)"/>
<path d="M2885.2 4.71792C2879.54 7.87312 2875.13 12.2124 2871.92 17.7464C2868.72 23.2705 2867.11 29.5114 2867.11 36.4289C2867.11 43.3564 2868.72 49.5774 2871.92 55.1114C2875.13 60.6355 2879.54 64.985 2885.2 68.1302C2890.84 71.2755 2897.18 72.8584 2904.22 72.8584C2911.14 72.8584 2917.39 71.2755 2922.97 68.1302C2928.58 64.985 2932.97 60.6355 2936.17 55.1114C2939.38 49.5774 2940.99 43.3564 2940.99 36.4289V32.338H2903.27V45.4467H2924.47C2923.9 47.7758 2922.73 49.9757 2920.94 52.046C2919.15 54.1163 2916.85 55.7685 2914 57.0226C2911.16 58.2768 2908.02 58.9035 2904.56 58.9035C2900.42 58.9035 2896.68 57.9279 2893.32 56.0069C2889.98 54.066 2887.36 51.3887 2885.45 47.9648C2883.55 44.5209 2882.61 40.679 2882.61 36.4289C2882.61 32.1689 2883.55 28.3565 2885.45 24.9824C2887.36 21.6082 2889.98 18.9608 2893.32 17.0697C2896.68 15.1686 2900.42 14.2132 2904.56 14.2132C2908.64 14.2132 2912.26 15.0494 2915.41 16.7216C2918.55 18.4037 2920.9 20.5632 2922.42 23.2407H2939.45C2938.09 18.8612 2935.77 14.92 2932.52 11.4065C2929.25 7.893 2925.19 5.10594 2920.33 3.06551C2915.49 1.02508 2910.12 5.4358e-05 2904.22 5.4358e-05C2897.18 5.4358e-05 2890.84 1.57267 2885.2 4.71792Z" fill="url(#paint16_linear_527_389)"/>
<path d="M2995.62 1.79067L2968.73 71.1553H2984.73L2989.58 57.7082H3016.47L3021.32 71.1553H3038.6L3011.71 1.79067H2995.62ZM3003.02 20.085L3011.71 44.2514H2994.34L3003.02 20.085Z" fill="url(#paint17_linear_527_389)"/>
<path d="M3057.2 4.71792C3051.55 7.87312 3047.13 12.2124 3043.92 17.7464C3040.71 23.2705 3039.12 29.5114 3039.12 36.4289C3039.12 43.3564 3040.71 49.5774 3043.92 55.1114C3047.13 60.6355 3051.55 64.985 3057.2 68.1302C3062.85 71.2755 3069.19 72.8584 3076.22 72.8584C3083.14 72.8584 3089.39 71.2755 3094.98 68.1302C3100.57 64.985 3104.97 60.6355 3108.18 55.1114C3111.38 49.5774 3113 43.3564 3113 36.4289V32.338H3075.28V45.4467H3096.47C3095.91 47.7758 3094.74 49.9757 3092.94 52.046C3091.16 54.1163 3088.85 55.7685 3086.01 57.0226C3083.17 58.2768 3080.03 58.9035 3076.57 58.9035C3072.43 58.9035 3068.68 57.9279 3065.33 56.0069C3061.97 54.066 3059.36 51.3887 3057.46 47.9648C3055.55 44.5209 3054.61 40.679 3054.61 36.4289C3054.61 32.1689 3055.55 28.3565 3057.46 24.9824C3059.36 21.6082 3061.97 18.9608 3065.33 17.0697C3068.68 15.1686 3072.43 14.2132 3076.57 14.2132C3080.65 14.2132 3084.26 15.0494 3087.41 16.7216C3090.56 18.4037 3092.9 20.5632 3094.43 23.2407H3111.45C3110.1 18.8612 3107.78 14.92 3104.52 11.4065C3101.26 7.893 3097.2 5.10594 3092.34 3.06551C3087.5 1.02508 3082.12 5.4358e-05 3076.22 5.4358e-05C3069.19 5.4358e-05 3062.85 1.57267 3057.2 4.71792Z" fill="url(#paint18_linear_527_389)"/>
<path d="M3122.17 1.79067V71.1553H3174.51V57.7082H3137.66V42.808H3170.77V29.3609H3137.66V15.2377H3173.76V1.79067H3122.17Z" fill="url(#paint19_linear_527_389)"/>
<path d="M3232.48 0.944431V43.4951L3197.83 1.79068H3184.89V71.1553H3200.39V28.5949L3235.04 70.2993H3247.97V0.944431H3232.48Z" fill="url(#paint20_linear_527_389)"/>
<path d="M3275.25 4.71792C3269.61 7.87312 3265.18 12.2124 3261.97 17.7464C3258.77 23.2705 3257.16 29.5114 3257.16 36.4289C3257.16 43.3564 3258.77 49.5774 3261.97 55.1114C3265.18 60.6355 3269.61 64.985 3275.25 68.1302C3280.89 71.2755 3287.23 72.8584 3294.27 72.8584C3300.45 72.8584 3306.11 71.5939 3311.24 69.0658C3316.38 66.5376 3320.54 63.2036 3323.71 59.073C3326.89 54.9224 3328.84 50.4927 3329.6 45.7948H3313.93C3313.53 47.885 3312.42 49.9359 3310.57 51.9166C3308.72 53.8973 3306.4 55.5197 3303.59 56.7638C3300.78 58.008 3297.79 58.6349 3294.61 58.6349C3290.47 58.6349 3286.73 57.6893 3283.37 55.7882C3280.03 53.8871 3277.41 51.2394 3275.5 47.8354C3273.6 44.4214 3272.66 40.6292 3272.66 36.4289C3272.66 32.1689 3273.6 28.3565 3275.5 24.9824C3277.41 21.6082 3280.03 18.9608 3283.37 17.0697C3286.73 15.1686 3290.47 14.2132 3294.61 14.2132C3299.43 14.2132 3303.54 15.3576 3306.9 17.617C3310.29 19.8864 3312.4 22.7235 3313.24 26.1275H3328.91C3327.93 21.1907 3325.93 16.7414 3322.86 12.76C3319.8 8.79861 3315.82 5.67325 3310.91 3.40389C3306 1.13453 3300.45 5.4358e-05 3294.27 5.4358e-05C3287.23 5.4358e-05 3280.89 1.57267 3275.25 4.71792Z" fill="url(#paint21_linear_527_389)"/>
<path d="M3378.53 1.79067L3361.93 34.5569L3345.24 1.79067H3327.56L3353.51 49.3672V71.1553H3368.99V49.3672L3394.95 1.79067H3378.53Z" fill="url(#paint22_linear_527_389)"/>
<path d="M1095.3 39.9111H1860.3V24.4241H1095.3V39.9111Z" fill="url(#paint23_linear_527_389)"/>
<path d="M201.133 16.1429L0 402.183H86.5468C128.402 402.183 166.763 378.902 186.103 341.796L355.763 16.1429H201.133Z" fill="url(#paint24_linear_527_389)"/>
<path d="M729.691 16.1429L528.558 402.183H615.104C656.949 402.183 695.321 378.902 714.66 341.796L884.32 16.1429H729.691Z" fill="url(#paint25_linear_527_389)"/>
<path d="M909.881 16.1429L852.876 125.55L1064.53 16.1429H909.881Z" fill="url(#paint26_linear_527_389)"/>
<path d="M708.749 402.183H863.398L833.726 162.308L708.749 402.183Z" fill="url(#paint27_linear_527_389)"/>
<path d="M533.664 16.1429H379.014L177.881 402.183H332.531L433.092 209.158C537.984 209.158 634.175 150.812 682.64 57.7981L704.339 16.1429H533.664Z" fill="url(#paint28_linear_527_389)"/>
<defs>
<linearGradient id="paint0_linear_527_389" x1="1669.13" y1="-37.7933" x2="2175.11" y2="124.848" gradientUnits="userSpaceOnUse">
<stop stop-color="#008DC7"/>
<stop offset="0.275773" stop-color="#008DC7"/>
<stop offset="0.760309" stop-color="#825CA3"/>
<stop offset="1" stop-color="#825CA3"/>
</linearGradient>
<linearGradient id="paint1_linear_527_389" x1="1675.07" y1="-56.2732" x2="2181.05" y2="106.366" gradientUnits="userSpaceOnUse">
<stop stop-color="#008DC7"/>
<stop offset="0.275773" stop-color="#008DC7"/>
<stop offset="0.760309" stop-color="#825CA3"/>
<stop offset="1" stop-color="#825CA3"/>
</linearGradient>
<linearGradient id="paint2_linear_527_389" x1="1682.04" y1="-77.9462" x2="2188.01" y2="84.6948" gradientUnits="userSpaceOnUse">
<stop stop-color="#008DC7"/>
<stop offset="0.275773" stop-color="#008DC7"/>
<stop offset="0.760309" stop-color="#825CA3"/>
<stop offset="1" stop-color="#825CA3"/>
</linearGradient>
<linearGradient id="paint3_linear_527_389" x1="1685.17" y1="-87.7154" x2="2191.15" y2="74.9257" gradientUnits="userSpaceOnUse">
<stop stop-color="#008DC7"/>
<stop offset="0.275773" stop-color="#008DC7"/>
<stop offset="0.760309" stop-color="#825CA3"/>
<stop offset="1" stop-color="#825CA3"/>
</linearGradient>
<linearGradient id="paint4_linear_527_389" x1="1692.95" y1="-111.889" x2="2198.92" y2="50.7513" gradientUnits="userSpaceOnUse">
<stop stop-color="#008DC7"/>
<stop offset="0.275773" stop-color="#008DC7"/>
<stop offset="0.760309" stop-color="#825CA3"/>
<stop offset="1" stop-color="#825CA3"/>
</linearGradient>
<linearGradient id="paint5_linear_527_389" x1="1697.92" y1="-127.373" x2="2203.9" y2="35.2674" gradientUnits="userSpaceOnUse">
<stop stop-color="#008DC7"/>
<stop offset="0.275773" stop-color="#008DC7"/>
<stop offset="0.760309" stop-color="#825CA3"/>
<stop offset="1" stop-color="#825CA3"/>
</linearGradient>
<linearGradient id="paint6_linear_527_389" x1="1705.14" y1="-149.797" x2="2211.11" y2="12.8416" gradientUnits="userSpaceOnUse">
<stop stop-color="#008DC7"/>
<stop offset="0.275773" stop-color="#008DC7"/>
<stop offset="0.760309" stop-color="#825CA3"/>
<stop offset="1" stop-color="#825CA3"/>
</linearGradient>
<linearGradient id="paint7_linear_527_389" x1="1711.94" y1="-170.975" x2="2217.92" y2="-8.33432" gradientUnits="userSpaceOnUse">
<stop stop-color="#008DC7"/>
<stop offset="0.275773" stop-color="#008DC7"/>
<stop offset="0.760309" stop-color="#825CA3"/>
<stop offset="1" stop-color="#825CA3"/>
</linearGradient>
<linearGradient id="paint8_linear_527_389" x1="1720.94" y1="-198.981" x2="2226.92" y2="-36.3391" gradientUnits="userSpaceOnUse">
<stop stop-color="#008DC7"/>
<stop offset="0.275773" stop-color="#008DC7"/>
<stop offset="0.760309" stop-color="#825CA3"/>
<stop offset="1" stop-color="#825CA3"/>
</linearGradient>
<linearGradient id="paint9_linear_527_389" x1="1726.07" y1="-214.949" x2="2232.05" y2="-52.3079" gradientUnits="userSpaceOnUse">
<stop stop-color="#008DC7"/>
<stop offset="0.275773" stop-color="#008DC7"/>
<stop offset="0.760309" stop-color="#825CA3"/>
<stop offset="1" stop-color="#825CA3"/>
</linearGradient>
<linearGradient id="paint10_linear_527_389" x1="1731.15" y1="-230.727" x2="2237.12" y2="-68.0857" gradientUnits="userSpaceOnUse">
<stop stop-color="#008DC7"/>
<stop offset="0.275773" stop-color="#008DC7"/>
<stop offset="0.760309" stop-color="#825CA3"/>
<stop offset="1" stop-color="#825CA3"/>
</linearGradient>
<linearGradient id="paint11_linear_527_389" x1="1739.14" y1="-255.597" x2="2245.12" y2="-92.9567" gradientUnits="userSpaceOnUse">
<stop stop-color="#008DC7"/>
<stop offset="0.275773" stop-color="#008DC7"/>
<stop offset="0.760309" stop-color="#825CA3"/>
<stop offset="1" stop-color="#825CA3"/>
</linearGradient>
<linearGradient id="paint12_linear_527_389" x1="1742.41" y1="-265.828" x2="2248.4" y2="-103.184" gradientUnits="userSpaceOnUse">
<stop stop-color="#008DC7"/>
<stop offset="0.275773" stop-color="#008DC7"/>
<stop offset="0.760309" stop-color="#825CA3"/>
<stop offset="1" stop-color="#825CA3"/>
</linearGradient>
<linearGradient id="paint13_linear_527_389" x1="1746.78" y1="-279.373" x2="2252.76" y2="-116.733" gradientUnits="userSpaceOnUse">
<stop stop-color="#008DC7"/>
<stop offset="0.275773" stop-color="#008DC7"/>
<stop offset="0.760309" stop-color="#825CA3"/>
<stop offset="1" stop-color="#825CA3"/>
</linearGradient>
<linearGradient id="paint14_linear_527_389" x1="1751.05" y1="-292.595" x2="2257.02" y2="-129.955" gradientUnits="userSpaceOnUse">
<stop stop-color="#008DC7"/>
<stop offset="0.275773" stop-color="#008DC7"/>
<stop offset="0.760309" stop-color="#825CA3"/>
<stop offset="1" stop-color="#825CA3"/>
</linearGradient>
<linearGradient id="paint15_linear_527_389" x1="1755.99" y1="-308.003" x2="2261.96" y2="-145.363" gradientUnits="userSpaceOnUse">
<stop stop-color="#008DC7"/>
<stop offset="0.275773" stop-color="#008DC7"/>
<stop offset="0.760309" stop-color="#825CA3"/>
<stop offset="1" stop-color="#825CA3"/>
</linearGradient>
<linearGradient id="paint16_linear_527_389" x1="1763.18" y1="-330.391" x2="2269.16" y2="-167.75" gradientUnits="userSpaceOnUse">
<stop stop-color="#008DC7"/>
<stop offset="0.275773" stop-color="#008DC7"/>
<stop offset="0.760309" stop-color="#825CA3"/>
<stop offset="1" stop-color="#825CA3"/>
</linearGradient>
<linearGradient id="paint17_linear_527_389" x1="1771.21" y1="-355.339" x2="2277.19" y2="-192.699" gradientUnits="userSpaceOnUse">
<stop stop-color="#008DC7"/>
<stop offset="0.275773" stop-color="#008DC7"/>
<stop offset="0.760309" stop-color="#825CA3"/>
<stop offset="1" stop-color="#825CA3"/>
</linearGradient>
<linearGradient id="paint18_linear_527_389" x1="1779.28" y1="-380.5" x2="2285.26" y2="-217.858" gradientUnits="userSpaceOnUse">
<stop stop-color="#008DC7"/>
<stop offset="0.275773" stop-color="#008DC7"/>
<stop offset="0.760309" stop-color="#825CA3"/>
<stop offset="1" stop-color="#825CA3"/>
</linearGradient>
<linearGradient id="paint19_linear_527_389" x1="1785.98" y1="-401.299" x2="2291.95" y2="-238.659" gradientUnits="userSpaceOnUse">
<stop stop-color="#008DC7"/>
<stop offset="0.275773" stop-color="#008DC7"/>
<stop offset="0.760309" stop-color="#825CA3"/>
<stop offset="1" stop-color="#825CA3"/>
</linearGradient>
<linearGradient id="paint20_linear_527_389" x1="1792.51" y1="-421.633" x2="2298.49" y2="-258.993" gradientUnits="userSpaceOnUse">
<stop stop-color="#008DC7"/>
<stop offset="0.275773" stop-color="#008DC7"/>
<stop offset="0.760309" stop-color="#825CA3"/>
<stop offset="1" stop-color="#825CA3"/>
</linearGradient>
<linearGradient id="paint21_linear_527_389" x1="1799.68" y1="-443.999" x2="2305.66" y2="-281.357" gradientUnits="userSpaceOnUse">
<stop stop-color="#008DC7"/>
<stop offset="0.275773" stop-color="#008DC7"/>
<stop offset="0.760309" stop-color="#825CA3"/>
<stop offset="1" stop-color="#825CA3"/>
</linearGradient>
<linearGradient id="paint22_linear_527_389" x1="1807.17" y1="-467.214" x2="2313.14" y2="-304.574" gradientUnits="userSpaceOnUse">
<stop stop-color="#008DC7"/>
<stop offset="0.275773" stop-color="#008DC7"/>
<stop offset="0.760309" stop-color="#825CA3"/>
<stop offset="1" stop-color="#825CA3"/>
</linearGradient>
<linearGradient id="paint23_linear_527_389" x1="1630.83" y1="81.3544" x2="2136.8" y2="243.998" gradientUnits="userSpaceOnUse">
<stop stop-color="#008DC7"/>
<stop offset="0.275773" stop-color="#008DC7"/>
<stop offset="0.760309" stop-color="#825CA3"/>
<stop offset="1" stop-color="#825CA3"/>
</linearGradient>
<linearGradient id="paint24_linear_527_389" x1="103.754" y1="-56.6757" x2="264.086" y2="518.328" gradientUnits="userSpaceOnUse">
<stop stop-color="#008DC7"/>
<stop offset="0.275773" stop-color="#008DC7"/>
<stop offset="0.760309" stop-color="#825CA3"/>
<stop offset="1" stop-color="#825CA3"/>
</linearGradient>
<linearGradient id="paint25_linear_527_389" x1="594.176" y1="-193.424" x2="754.509" y2="381.58" gradientUnits="userSpaceOnUse">
<stop stop-color="#008DC7"/>
<stop offset="0.275773" stop-color="#008DC7"/>
<stop offset="0.760309" stop-color="#825CA3"/>
<stop offset="1" stop-color="#825CA3"/>
</linearGradient>
<linearGradient id="paint26_linear_527_389" x1="864.026" y1="-268.665" x2="1024.36" y2="306.333" gradientUnits="userSpaceOnUse">
<stop stop-color="#008DC7"/>
<stop offset="0.275773" stop-color="#008DC7"/>
<stop offset="0.760309" stop-color="#825CA3"/>
<stop offset="1" stop-color="#825CA3"/>
</linearGradient>
<linearGradient id="paint27_linear_527_389" x1="635.396" y1="-204.917" x2="795.728" y2="370.086" gradientUnits="userSpaceOnUse">
<stop stop-color="#008DC7"/>
<stop offset="0.275773" stop-color="#008DC7"/>
<stop offset="0.760309" stop-color="#825CA3"/>
<stop offset="1" stop-color="#825CA3"/>
</linearGradient>
<linearGradient id="paint28_linear_527_389" x1="347.99" y1="-124.778" x2="508.323" y2="450.227" gradientUnits="userSpaceOnUse">
<stop stop-color="#008DC7"/>
<stop offset="0.275773" stop-color="#008DC7"/>
<stop offset="0.760309" stop-color="#825CA3"/>
<stop offset="1" stop-color="#825CA3"/>
</linearGradient>
</defs>
</svg>
